# xmcd CD database file
#
# Track frame offsets:
#	150
#	9379
#	31354
#	46398
#	57786
#	73176
#	86560
#	104110
#	117173
#	129034
#	140378
#	160435
#	173819
#	187665
#	202179
#
# Disc length: 2885 seconds
#
# Revision: 2
# Processed by: cddbd v1.5.2PL0 Copyright (c) Steve Scherf et al.
# Submitted via: CDex 1.51
#
DISCID=cc0b430f
DTITLE=Double Trouble - From Blues to Bluegrass
DYEAR=2006
DGENRE=Country
TTITLE0=That's allright Mama
TTITLE1=Ain't nobody's business
TTITLE2=I saw the light
TTITLE3=Stuck on you
TTITLE4=What a wonderful World
TTITLE5=Move it on over
TTITLE6=Down the way
TTITLE7=Mean old frisco
TTITLE8=Little cabin home on the hill
TTITLE9=Honky tonk song
TTITLE10=Honest i do
TTITLE11=Apache
TTITLE12=Hot corn, cold corn
TTITLE13=Baby what you want me to do
TTITLE14=Private angel
EXTD=Schweizer Country Band YEAR: 2006
EXTT0=
EXTT1=
EXTT2=
EXTT3=
EXTT4=
EXTT5=
EXTT6=
EXTT7=
EXTT8=
EXTT9=
EXTT10=
EXTT11=
EXTT12=
EXTT13=
EXTT14=
PLAYORDER=
